<?xml version="1.0" encoding="utf-8"?>
<!-- Generator: Adobe Illustrator 24.2.1, SVG Export Plug-In . SVG Version: 6.00 Build 0)  -->
<svg version="1.1" id="Layer_1" xmlns="http://www.w3.org/2000/svg" xmlns:xlink="http://www.w3.org/1999/xlink" x="0px" y="0px"
	 viewBox="0 0 512 512" style="enable-background:new 0 0 512 512;" xml:space="preserve">
<style type="text/css">
	.st0{fill:#FFFFFF;stroke:#120D0F;stroke-miterlimit:10;}
</style>
<path class="st0" d="M418.9,93.1C375.4,49.5,317.6,25.6,256,25.6c-46.7,0-91.7,13.9-130.1,40.2c-25.9,17.7-47.7,40.3-64.3,66.4V76.9
	h-36v117h117v-36H88.1c34.6-59.3,97.8-96.3,167.9-96.3c107.2,0,194.4,87.2,194.4,194.4S363.2,450.4,256,450.4S61.6,363.2,61.6,256
	h-36c0,61.6,23.9,119.4,67.5,162.9s101.3,67.5,162.9,67.5s119.4-23.9,162.9-67.5s67.5-101.3,67.5-162.9S462.5,136.6,418.9,93.1z"/>
<g>
	<g>
		<path class="st0" d="M380.3,239.3c-1-1-2.6-3.1-4.1-5.2c-0.5-0.5-0.5-0.5-1-1c-1.5-1.6-3.1-2.6-5.1-3.6l-75.9-44
			c0,0-0.5,0-0.5-0.5l-76.5-44.5c-6.7-4.1-14.4-4.7-21.5-3.1c-7.2,2.1-13.3,6.7-17.4,13.5c-1.5,2.1-2.1,4.7-3.1,6.7
			c-0.5,1.6-0.5,3.6-1,5.7c0,0.5,0,1.6,0,2.1v89.5v89c0,7.8,3.1,15,8.2,20.2c5.1,5.2,12.3,8.3,20,8.3c2.6,0,5.6-0.5,8.2-1.6
			c2.6-1,5.1-2.1,7.2-3.6l75.4-44l1-0.5l75.9-44c0.5,0,0.5-0.5,1-0.5c6.2-4.1,10.8-10.4,12.3-17.1
			C385.4,253.8,384.4,246.1,380.3,239.3z M358.2,255.4c0,0.5-0.5,1-1,1h-0.5l-75.4,44.5l-0.5,0.5l-75.4,44c-0.5,0-0.5,0.5-1,0.5
			c0,0-0.5,0-0.5,0.5h-0.5c-0.5,0-1-0.5-1.5-0.5c-0.5-0.5-0.5-1-0.5-1.6v-89.5v-89v-0.5v-0.5c0.5-0.5,1-1,1.5-1s1,0,1.5,0l75.9,44
			l0.5,0.5l76.5,44.5l0.5,0.5l0.5,0.5C358.2,254.4,358.2,254.9,358.2,255.4z"/>
	</g>
</g>
</svg>
